<?xml version="1.0" encoding="utf-8"?>
<svg xmlns="http://www.w3.org/2000/svg" xml:space="preserve" width="24" height="24" viewBox="0 0 24 24">
    <path
        d="M23 3h-7V.5c0-.275-.224-.5-.5-.5h-8c-.276 0-.5.225-.5.5V3H1c-.276 0-.5.225-.5.5 0 .276.224.5.5.5h2v19.5c0 .277.224.5.5.5h16c.276 0 .5-.224.5-.5V4h3c.276 0 .5-.224.5-.5 0-.275-.224-.5-.5-.5zM8 18.5c0 .277-.224.5-.5.5s-.5-.223-.5-.5v-11c0-.275.224-.5.5-.5s.5.225.5.501V18.5zM8 1h7v2H8V1zm4 17.5c0 .276-.224.5-.5.5s-.5-.223-.5-.5v-11c0-.275.224-.5.5-.5s.5.225.5.5v11zm4 0c0 .276-.224.5-.5.5s-.5-.223-.5-.5v-11c0-.275.224-.5.5-.5s.5.225.5.5v11z" />
    <path fill="none" d="M0 0h24v24H0z" />
</svg>